<?xml version="1.0" standalone="no"?>
<!DOCTYPE svg PUBLIC "-//W3C//DTD SVG 1.1//EN" "http://www.w3.org/Graphics/SVG/1.1/DTD/svg11.dtd" >
<svg xmlns="http://www.w3.org/2000/svg">
<metadata>
Created by FontForge 20120731 at Sat Dec 31 10:29:02 2016
 By admin
</metadata>
<defs>
<font id="iconfont" horiz-adv-x="1024" >
  <font-face 
    font-family="iconfont"
    font-weight="500"
    font-stretch="normal"
    units-per-em="1024"
    panose-1="2 0 6 3 0 0 0 0 0 0"
    ascent="896"
    descent="-128"
    x-height="792"
    bbox="0 -212 1024 896"
    underline-thickness="0"
    underline-position="0"
    unicode-range="U+0078-E65D"
  />
<missing-glyph 
 />
    <glyph glyph-name=".notdef" 
 />
    <glyph glyph-name=".notdef" 
 />
    <glyph glyph-name=".null" horiz-adv-x="0" 
 />
    <glyph glyph-name="nonmarkingreturn" horiz-adv-x="341" 
 />
    <glyph glyph-name="x" unicode="x" horiz-adv-x="1001" 
d="M281 543q-27 -1 -53 -1h-83q-18 0 -36.5 -6t-32.5 -18.5t-23 -32t-9 -45.5v-76h912v41q0 16 -0.5 30t-0.5 18q0 13 -5 29t-17 29.5t-31.5 22.5t-49.5 9h-133v-97h-438v97zM955 310v-52q0 -23 0.5 -52t0.5 -58t-10.5 -47.5t-26 -30t-33 -16t-31.5 -4.5q-14 -1 -29.5 -0.5
t-29.5 0.5h-32l-45 128h-439l-44 -128h-29h-34q-20 0 -45 1q-25 0 -41 9.5t-25.5 23t-13.5 29.5t-4 30v167h911zM163 247q-12 0 -21 -8.5t-9 -21.5t9 -21.5t21 -8.5q13 0 22 8.5t9 21.5t-9 21.5t-22 8.5zM316 123q-8 -26 -14 -48q-5 -19 -10.5 -37t-7.5 -25t-3 -15t1 -14.5
t9.5 -10.5t21.5 -4h37h67h81h80h64h36q23 0 34 12t2 38q-5 13 -9.5 30.5t-9.5 34.5q-5 19 -11 39h-368zM336 498v228q0 11 2.5 23t10 21.5t20.5 15.5t34 6h188q31 0 51.5 -14.5t20.5 -52.5v-227h-327z" />
    <glyph glyph-name="jiantouxia" unicode="&#xe616;" 
d="M4 494l125 125l379 -405l390 390l122 -117l-506 -507z" />
    <glyph glyph-name="gou" unicode="&#xe62f;" 
d="M409 -131q50 91 198 232.5t280 230.5l68 41q41 22 68 28q-19 42 -23.5 87.5t0.5 78.5t13 82.5t11 81.5v0q-89 -45 -190 -131l-71 -64q-91 -87 -183.5 -195.5t-139.5 -174.5l-47 -65l-120 232l-273 -132q86 -31 203 -126.5t206 -205.5v0z" />
    <glyph glyph-name="fa-left" unicode="&#xe60a;" 
d="M397 288l360 360l-90 90l-450 -450l450 -450l90 90z" />
    <glyph glyph-name="jiantouxia1" unicode="&#xe62e;" 
d="M320 492l-85 -85l298 -299l299 299l-85 85l-214 -213z" />
    <glyph glyph-name="gouwuche" unicode="&#xe634;" 
d="M956 585q0 15 -11 26t-26 11h-623q-7 0 -13 -3l-33 103q-5 13 -16.5 20t-24.5 5h-2h-104q-15 0 -26 -11t-11 -26t11 -26t26 -11h85l148 -458l-108 -133q-10 -12 -8.5 -27t13.5 -25q16 -12 35 -6h628q16 0 26.5 10.5t10.5 26t-10.5 26t-26.5 10.5h-560l60 74h404
q15 0 26 10.5t11 25.5v1l117 350q3 9 1 19q1 4 1 8zM772 245h-368l-98 303h566zM518.5 319q15.5 0 26 10.5t10.5 26.5v96q0 15 -10.5 26t-26 11t-26.5 -11t-11 -26v-96q0 -16 11 -26.5t26.5 -10.5zM681.5 319q15.5 0 26.5 10.5t11 26.5v96q0 15 -11 26t-26.5 11t-26.5 -11
t-11 -26v-96q0 -16 11 -26.5t26.5 -10.5zM348 -28q-25 0 -42 -17.5t-17 -42t17 -41.5t42 -17t42 17t17 41.5t-17 42t-42 17.5zM807.5 -28q-24.5 0 -42 -17.5t-17.5 -42t17.5 -41.5t42 -17t42 17t17.5 41.5t-17.5 42t-42 17.5z" />
    <glyph glyph-name="fangdajing" unicode="&#xe605;" 
d="M870 12l-176 176l-6 6q47 72 47 159q0 120 -85.5 205.5t-206.5 85.5t-206.5 -85.5t-85.5 -206t85.5 -206t206.5 -85.5q86 0 159 47q3 -5 5 -7l177 -176q17 -18 42.5 -18t43.5 18t18 43.5t-18 43.5zM443 153q-83 0 -141.5 58.5t-58.5 141t58.5 141t141 58.5t141.5 -58.5
t59 -141t-59 -141t-141 -58.5v0z" />
    <glyph glyph-name="youjiantou" unicode="&#xe613;" 
d="M823 292l-109 112h-1l-399 408l-113 -116l399 -408l-380 -388l110 -112l380 388v0l113 115v1v0z" />
    <glyph glyph-name="gou1" unicode="&#xe607;" 
d="M436 82q5 10 14 27t40 69.5t63.5 103t82 118.5t98 126t108.5 115t117 95q-16 -42 -19.5 -108t2.5 -127t17 -108q-48 -11 -123.5 -75t-148.5 -149t-137.5 -174t-98.5 -155q-89 112 -190.5 194t-196.5 133l147 142z" />
    <glyph glyph-name="duigou" unicode="&#xe65c;" 
d="M356 321l95 -184q3 8 9 22t26.5 55t43.5 80.5t59 92t73.5 96t86.5 85.5t99 68q-2 -19 -6.5 -63t-6 -67.5t4 -60.5t19.5 -70q-49 -11 -132 -89.5t-155 -171t-110 -160.5q-74 92 -156.5 159t-145.5 90z" />
    <glyph glyph-name="suo" unicode="&#xe630;" 
d="M799 332v129v0q-6 47 -30 93t-60.5 82.5t-87 58.5t-103.5 22q-72 0 -137.5 -37.5t-106.5 -96.5t-49 -122v0v-129h-96v-448h766v448h-96zM255 391v32q0 106 75 181t181 75t181 -75t75 -181v-91h-512v59zM864 -83h-704v384h704v-384zM515 43h6q11 0 17 11.5t6 23.5v82
q0 8 -4.5 10t-18.5 2h-6h-4q-31 0 -31 -12v-82q0 -10 11.5 -22.5t23.5 -12.5z" />
    <glyph glyph-name="gouwuche1" unicode="&#xe626;" 
d="M821 94h-589l78 169l-103 334h-77v51h115l120 -389l-52 -113h508v-52zM774 213h-447v51h411l83 221h-474v52h548zM404 -44q-22 0 -37.5 16t-15.5 38t15.5 37.5t37.5 15.5t38 -15.5t16 -37.5t-16 -38t-38 -16zM690 -44q-22 0 -37.5 16t-15.5 38t15.5 37.5t37.5 15.5
t38 -15.5t16 -37.5t-16 -38t-38 -16z" />
    <glyph glyph-name="lishijilu" unicode="&#xe64a;" 
d="M522 527h-35q-12 0 -20 -8t-8 -20v-237q0 -11 8 -19t20 -8h194q12 0 20 8t8 19v35q0 11 -8 19t-20 8h-131v175q0 12 -8.5 20t-19.5 8zM518 732q-109 0 -202.5 -50t-152.5 -135v81q0 11 -8 19t-20 8h-32q-11 0 -19.5 -8t-8.5 -19v-201q0 -12 8.5 -20t19.5 -8h204
q12 0 20 8t8 20v28q0 12 -8 20t-20 8h-101q46 81 128.5 129.5t179.5 48.5q96 0 177.5 -47t128.5 -127t47 -174.5t-47 -174.5t-128.5 -126.5t-177.5 -46.5q-128 0 -226 80.5t-121 202.5l-71 -14q27 -149 146 -248t276 -99q116 0 215 56.5t156 153.5t57 212t-57 212.5
t-156 154t-215 56.5z" />
    <glyph glyph-name="leftarrow" unicode="&#xe65d;" 
d="M742 630l-330 -330l334 -334v0q18 -19 18 -44q0 -26 -18.5 -44.5t-44.5 -18.5q-25 0 -44 17v0l-378 379v0q-19 18 -19 45v0v0q0 27 19 46v0l378 378v0q19 17 44 17q26 0 44.5 -18.5t18.5 -44.5q0 -29 -22 -48z" />
    <glyph glyph-name="fangdajing1" unicode="&#xe652;" 
d="M619 435.5q0 114.5 -81 195.5t-195.5 81t-195.5 -81t-81 -195.5t81 -195.5t195.5 -81t195.5 81t81 195.5zM342.5 215q-91.5 0 -156 65t-64.5 156t64.5 155.5t156 64.5t156 -64.5t64.5 -155.5t-64.5 -156t-156 -65zM837 -36l-242 259q-8 9 -22 -5l-31 -28q-15 -14 -7 -22
l243 -260q8 -8 22 5l31 29q14 14 6 22z" />
    <glyph glyph-name="xinxi" unicode="&#xe617;" 
d="M512 418q-19 0 -32.5 -13.5t-13.5 -33t13.5 -33t32.5 -13.5t32.5 13.5t13.5 33t-13.5 33t-32.5 13.5zM303 418q-19 0 -32.5 -13.5t-13.5 -33t13.5 -33t32.5 -13.5t33 13.5t14 33t-14 33t-33 13.5zM906 734h-788q-29 0 -49.5 -20.5t-20.5 -48.5v-581q0 -28 20.5 -48.5
t49.5 -20.5h218q14 0 23 -10l130 -130q9 -9 23 -9t23 9l130 130q9 10 23 10h218q29 0 49.5 20.5t20.5 48.5v581q0 28 -20.5 48.5t-49.5 20.5zM930 98q0 -16 -11.5 -27t-26.5 -11h-228q-13 0 -22 -9l-116 -116q-6 -6 -14 -6t-14 6l-116 116q-9 9 -22 9h-228q-15 0 -26.5 11
t-11.5 27v551q0 16 11.5 27t26.5 11h760q15 0 26.5 -11t11.5 -27v-551zM721 418q-19 0 -33 -13.5t-14 -33t14 -33t33 -13.5t32.5 13.5t13.5 33t-13.5 33t-32.5 13.5z" />
    <glyph glyph-name="wujiaoxingkong" unicode="&#xe623;" 
d="M773 -123q-7 0 -12 4l-250 182l-250 -182q-13 -9 -25.5 0t-7.5 24l95 294l-250 181q-12 10 -7.5 24.5t20.5 14.5h309l95 294q5 15 21 15t20 -15l96 -294h309q15 0 20 -14.5t-8 -24.5l-250 -181l96 -294q5 -15 -8 -24q-6 -4 -13 -4zM153 376l208 -151q13 -10 8 -25
l-80 -245l209 152q13 9 26 0l208 -152l-79 245q-5 15 7 25l209 151h-258q-16 0 -20 15l-80 246l-80 -246q-5 -15 -20 -15h-258z" />
    <glyph glyph-name="lishijilu1" unicode="&#xe639;" 
d="M561 684q-137 0 -241.5 -85.5t-133.5 -215.5l-43 71q0 1 -1 1q-7 12 -21 15t-26 -5t-16.5 -21.5t2.5 -25.5l1 -1l110 -184l60 38v0l124 78l1 1q11 8 13.5 21.5t-4.5 26.5t-21 16.5t-26 -3.5l-1 -1l-87 -55q20 111 107.5 185t202.5 74q130 0 222 -92t92 -222t-92 -222
t-222 -92q-81 0 -150 38t-113 104l-2 2v1l-1 1v0q-10 13 -27 13q-14 0 -24.5 -10.5t-10.5 -24.5q0 -11 6 -20v0q53 -80 138 -127t184 -47q159 0 271.5 112.5t112.5 271.5t-112.5 271.5t-271.5 112.5zM512 284v-71h213h2q15 0 25.5 10.5t10.5 25.5t-10.5 25.5t-25.5 10.5h-2
l-142 -1v150v2q0 15 -10.5 25.5t-25.5 10.5t-25.5 -10.5t-10.5 -25.5v-2l1 -150v0v0z" />
    <glyph glyph-name="suo1" unicode="&#xe640;" 
d="M751 504v126q0 69 -41 127.5t-106 81.5q-66 24 -134.5 5.5t-113.5 -71.5q-52 -62 -52 -143v-126h-114v-555h675v555h-114zM333 630q0 79 57.5 136.5t137 57.5t137 -57.5t57.5 -136.5v-126h-389v126v0zM836 -22h-617v497h85h447h85v-497v0zM542 318h-29v-23h-23v-29h23
v-139h29v139h23v29h-23v23z" />
    <glyph glyph-name="555" unicode="&#xe61c;" 
d="M219 -42q-3 0 -7 1q-12 5 -12 18v165h-49q-35 0 -60.5 25t-25.5 61v485q0 36 25.5 61t60.5 25h725q35 0 60.5 -25t25.5 -61v-485q0 -36 -25.5 -61t-60.5 -25h-486l-156 -178q-6 -6 -15 -6zM151 760q-19 0 -33 -13.5t-14 -33.5v-485q0 -20 14 -34t33 -14h68q8 0 14 -5.5
t6 -13.5v-133l128 146q6 6 14 6h495q19 0 33 14t14 34v485q0 20 -14 33.5t-33 13.5h-725zM512 387q-24 0 -41 17t-17 41t17 41.5t41 17.5t41 -17.5t17 -41.5t-17 -41t-41 -17zM512 465q-8 0 -13.5 -6t-5.5 -14t5.5 -13.5t13.5 -5.5t13.5 5.5t5.5 13.5t-5.5 14t-13.5 6z
M318 387q-24 0 -41.5 17t-17.5 41t17.5 41.5t41.5 17.5t41 -17.5t17 -41.5t-17 -41t-41 -17zM318 465q-8 0 -14 -6t-6 -14t6 -13.5t14 -5.5t13.5 5.5t5.5 13.5t-5.5 14t-13.5 6zM706 387q-24 0 -41 17t-17 41t17 41.5t41 17.5t41.5 -17.5t17.5 -41.5t-17.5 -41t-41.5 -17z
M706 465q-8 0 -13.5 -6t-5.5 -14t5.5 -13.5t13.5 -5.5t14 5.5t6 13.5t-6 14t-14 6z" />
    <glyph glyph-name="kongwujiaoxing" unicode="&#xe619;" horiz-adv-x="1131" 
d="M918 454q19 19 12 40.5t-33 25.5l-220 32q-4 1 -9.5 5t-7.5 7l-98 199q-12 24 -34.5 24t-34.5 -24l-99 -199q-1 -3 -6.5 -7t-9.5 -5l-220 -32q-26 -4 -33 -26t12 -40l159 -155q8 -8 6 -20l-37 -218q-4 -21 7 -34t28 -13q10 0 21 6l196 103q4 2 10.5 2t10.5 -2l196 -103
q11 -6 21 -6q17 0 28 13t8 34l-38 218q-2 12 7 20zM723 337q-13 -12 -19 -31t-3 -36l33 -191l-172 91q-15 7 -34 7q-20 0 -35 -7l-172 -91l33 192q3 16 -3.5 35t-18.5 31l-139 135l192 28q17 2 33 14t24 27l86 174l85 -174q8 -15 24 -27t33 -14l192 -28z" />
    <glyph glyph-name="xinxi1" unicode="&#xe627;" 
d="M486 794q-118 0 -218 -51t-158.5 -139t-58.5 -191q0 -89 43.5 -166.5t119.5 -130.5v-193l191 116q41 -7 81 -7q119 0 219 51t158 138.5t58 191t-58 191.5t-158.5 139t-218.5 51zM268.5 358q-22.5 0 -38.5 16t-16 38.5t16 38.5t38.5 16t38.5 -16t16 -38.5t-16 -38.5
t-38.5 -16zM486.5 358q-22.5 0 -38.5 16t-16 38.5t16 38.5t38.5 16t38.5 -16t16 -38.5t-16 -38.5t-38.5 -16zM703.5 358q-22.5 0 -38.5 16t-16 38.5t16 38.5t38.5 16t38.5 -16t16 -38.5t-16 -38.5t-38.5 -16z" />
    <glyph glyph-name="12huancun" unicode="&#xe638;" 
d="M503 158q4 -4 10 -4t10 4l361 362q10 10 0 20t-20 0l-337 -337v551q0 6 -4 10t-10 4t-10.5 -4t-4.5 -10v-551l-337 337q-10 10 -20 0t0 -20zM946.5 285q-5.5 0 -10 -4t-4.5 -10v-242h-839v242q0 6 -4 10t-10 4t-10 -4t-4 -10v-256q0 -6 4 -10t10 -4h867q6 0 10.5 4
t4.5 10v256q0 6 -4.5 10t-10 4z" />
    <glyph glyph-name="lixian" unicode="&#xe621;" 
d="M416 896q-22 0 -38 -16t-16 -38v-307h-119q-22 0 -28.5 -13t6.5 -31l252 -355q13 -18 31.5 -18.5t31.5 18.5l253 355q13 18 6.5 31t-28.5 13h-119v307q0 22 -16 38t-38 16h-178zM0 -48q0 -22 16 -38t38 -16h903q23 0 38.5 16t15.5 38v216q0 23 -15.5 38.5t-38 15.5
t-38.5 -15.5t-16 -38.5v-216l54 54h-903l54 -54v216q0 23 -15.5 38.5t-38 15.5t-38.5 -15.5t-16 -38.5v-216z" />
    <glyph glyph-name="caidan" unicode="&#xe625;" 
d="M512 666zM435 665.5q0 31.5 22.5 54t54.5 22.5t54.5 -22.5t22.5 -54t-22.5 -54t-54.5 -22.5t-54.5 22.5t-22.5 54zM512 384zM435 384q0 32 22.5 54.5t54.5 22.5t54.5 -22.5t22.5 -54.5t-22.5 -54.5t-54.5 -22.5t-54.5 22.5t-22.5 54.5zM512 102zM435 102.5
q0 31.5 22.5 54t54.5 22.5t54.5 -22.5t22.5 -54t-22.5 -54t-54.5 -22.5t-54.5 22.5t-22.5 54z" />
    <glyph glyph-name="inputlock" unicode="&#xe624;" 
d="M853 -128h-682q-43 0 -73 30t-30 72v478q0 43 30 73t73 30h34v34q0 127 90 217t217 90t217 -90t90 -217v-34h34q43 0 73 -30t30 -73v-478q0 -42 -30 -72t-73 -30zM751 589q0 99 -70 169t-169 70t-169 -70t-70 -169v-34h478v34zM887 452q0 14 -10 24t-24 10h-682
q-14 0 -24 -10t-10 -24v-478q0 -14 10 -24t24 -10h682q14 0 24 10t10 24v478zM546 151v-108h-68v108q-30 11 -49 37.5t-19 58.5q0 43 30 73t72 30t72 -30t30 -73q0 -32 -19 -58.5t-49 -37.5z" />
    <glyph glyph-name="dengluxiaoren" unicode="&#xe632;" 
d="M512 834q-109 0 -186 -77t-77 -186q0 -67 31 -124.5t86 -94.5q-72 -29 -128 -85q-55 -55 -94.5 -135.5t-39.5 -158.5q0 -15 10.5 -25.5t25.5 -10.5t25.5 10.5t10.5 25.5q0 63 34 130.5t79 112.5q88 88 213 92h10q109 0 186 77t77 186t-77 186t-186 77zM703 571
q0 -77 -55 -133t-132 -58q-2 1 -4 1q-5 0 -10 -1q-76 4 -128.5 59.5t-52.5 131.5q0 79 56 135t135 56t135 -56t56 -135zM785 267q-10 11 -25 11t-25.5 -10.5t-10.5 -25.5t10 -26q45 -45 79 -112.5t34 -130.5q0 -15 10.5 -25.5t25.5 -10.5t25.5 10.5t10.5 25.5
q0 78 -39.5 158.5t-94.5 135.5z" />
    <glyph glyph-name="weibiaoti-" unicode="&#xe602;" 
d="M511.5 870q-116.5 0 -199 -83.5t-82.5 -200.5q0 -83 43.5 -152t114.5 -104q-123 -39 -210.5 -158.5t-87.5 -248.5v-1q0 -10 6.5 -17t16.5 -7t16.5 7t6.5 16v1q0 76 28.5 145t82.5 123q44 45 120.5 77.5t140.5 33.5h4q116 0 199 83.5t83 201t-83 201t-199.5 83.5zM514 348
q-1 0 -1.5 0.5l-0.5 0.5h-4q-95 2 -163 71t-68 165v1q0 98 69 167.5t166 69.5t166 -69.5t69 -167.5t-68.5 -167.5t-164.5 -70.5zM811 224q-7 6 -17 6t-16.5 -6.5t-6.5 -16.5t6 -17q54 -54 82 -123t28 -145q0 -10 7 -17t17 -7t16.5 7t6.5 16v1v1q0 73 -36 161t-87 140z" />
    <glyph glyph-name="huancunlaji" unicode="&#xe622;" 
d="M545 395v225v0q0 14 -9.5 24t-23.5 10t-23.5 -10t-9.5 -23v-1v-225h-100q-7 0 -10 -6.5t1 -11.5l134 -158q3 -4 8 -4t8 4l134 158q4 5 1 11.5t-10 6.5h-100v0zM156 91h712v-44v0q0 -10 -7 -16.5t-16 -6.5v0h-666v0q-9 0 -16 6.5t-7 16.5v0v44v0zM112 722q0 9 6.5 15.5
t15.5 6.5h756q9 0 15.5 -6.5t6.5 -15.5v-563q0 -9 -6.5 -15.5t-15.5 -6.5h-756q-9 0 -15.5 6.5t-6.5 15.5v563z" />
  </font>
</defs>
</svg>
